<svg xmlns="http://www.w3.org/2000/svg" viewBox="161 -1021 3278 3278">
  <g fill="#000000" transform="scale(1,-1) translate(0,-1237)">
    <path d="M933 1680V1460Q842 1460 791.0 1434.5Q740 1409 747 1333L778 1038Q790 926 753.5 857.0Q717 788 642.5 751.5Q568 715 467 700Q574 684 648.0 648.0Q722 612 756.0 544.0Q790 476 778 362L747 67Q740 -9 791.0 -34.5Q842 -60 933 -60V-280Q657 -280 545.5 -196.5Q434 -113 455 89L485 375Q493 451 459.5 494.0Q426 537 361.0 554.5Q296 572 211 572V828Q295 828 360.0 845.5Q425 863 459.0 906.0Q493 949 485 1025L455 1309Q433 1515 545.0 1597.5Q657 1680 933 1680Z"/>
    <path d="M740 1618Q822 1618 874.0 1567.0Q926 1516 926 1440Q926 1364 874.0 1312.5Q822 1261 740 1261Q657 1261 604.5 1312.5Q552 1364 552 1440Q552 1516 604.5 1567.0Q657 1618 740 1618ZM945 1062V308Q945 78 859.5 -70.5Q774 -219 605.5 -306.5Q437 -394 189 -443L139 -202Q300 -165 409.0 -110.0Q518 -55 573.5 39.5Q629 134 629 288V846H247V1062Z" transform="translate(1200,0)"/>
    <path d="M267 1680Q543 1680 654.5 1597.0Q766 1514 745 1311L715 1025Q707 949 741.0 906.0Q775 863 839.5 845.5Q904 828 989 828V572Q905 572 840.0 554.5Q775 537 741.0 494.0Q707 451 715 375L745 91Q768 -114 655.5 -197.0Q543 -280 267 -280V-60Q359 -60 410.0 -34.5Q461 -9 453 67L422 362Q410 475 446.5 543.5Q483 612 558.0 648.5Q633 685 734 700Q627 716 552.5 752.0Q478 788 444.0 856.5Q410 925 422 1038L453 1333Q461 1409 409.5 1434.5Q358 1460 267 1460Z" transform="translate(2400,0)"/>
  </g>
</svg>